<svg viewBox="0 0 120 120" xmlns="http://www.w3.org/2000/svg">
  <!-- Background -->
  <circle cx="60" cy="60" r="58" fill="#FFE0B2"/>
  <!-- Face -->
  <circle cx="60" cy="58" r="38" fill="#FFDBB4"/>
  <!-- Hair - blonde -->
  <path d="M 22 55 Q 22 18 60 14 Q 98 18 98 55 Q 95 30 60 25 Q 25 30 22 55" fill="#F0C060"/>
  <path d="M 22 55 Q 20 70 25 82 L 22 55" fill="#E0B050"/>
  <path d="M 98 55 Q 100 70 95 82 L 98 55" fill="#E0B050"/>
  <!-- Side hair strands -->
  <path d="M 25 55 Q 22 68 28 78" stroke="#E0B050" stroke-width="4" fill="none" stroke-linecap="round"/>
  <path d="M 95 55 Q 98 68 92 78" stroke="#E0B050" stroke-width="4" fill="none" stroke-linecap="round"/>
  <!-- Headband -->
  <path d="M 25 42 Q 60 32 95 42" stroke="#4FC3F7" stroke-width="5" fill="none" stroke-linecap="round"/>
  <!-- Eyebrows -->
  <path d="M 42 48 Q 47 45 52 48" stroke="#A08040" stroke-width="1.8" fill="none" stroke-linecap="round"/>
  <path d="M 68 48 Q 73 45 78 48" stroke="#A08040" stroke-width="1.8" fill="none" stroke-linecap="round"/>
  <!-- Eyes -->
  <ellipse cx="47" cy="55" rx="5" ry="5.5" fill="white"/>
  <circle cx="48" cy="55" r="3" fill="#5D4037"/>
  <circle cx="49" cy="54" r="1" fill="white"/>
  <ellipse cx="73" cy="55" rx="5" ry="5.5" fill="white"/>
  <circle cx="74" cy="55" r="3" fill="#5D4037"/>
  <circle cx="75" cy="54" r="1" fill="white"/>
  <!-- Eyelashes -->
  <path d="M 42 52 L 40 50" stroke="#A08040" stroke-width="1" stroke-linecap="round"/>
  <path d="M 78 52 L 80 50" stroke="#A08040" stroke-width="1" stroke-linecap="round"/>
  <!-- Nose -->
  <path d="M 60 58 Q 58 64 60 65 Q 62 64 60 58" fill="#F0C8A0" stroke="none"/>
  <!-- Mouth - smile -->
  <path d="M 52 70 Q 60 77 68 70" stroke="#E57373" stroke-width="2" fill="none" stroke-linecap="round"/>
  <!-- Lips -->
  <path d="M 54 70 Q 60 74 66 70" fill="#F48FB1"/>
  <!-- Blush -->
  <circle cx="40" cy="65" r="5" fill="#FFCDD2" opacity="0.5"/>
  <circle cx="80" cy="65" r="5" fill="#FFCDD2" opacity="0.5"/>
  <!-- Neck -->
  <rect x="50" y="92" width="20" height="12" rx="2" fill="#FFDBB4"/>
  <!-- Shirt -->
  <path d="M 30 104 Q 40 96 50 98 L 70 98 Q 80 96 90 104 L 90 120 L 30 120 Z" fill="#4FC3F7"/>
  <path d="M 50 98 L 60 105 L 70 98" fill="#039BE5"/>
</svg>