<svg viewBox="0 0 120 120" xmlns="http://www.w3.org/2000/svg">
  <!-- Background -->
  <circle cx="60" cy="60" r="58" fill="#D7CCC8"/>
  <!-- Face -->
  <circle cx="60" cy="58" r="38" fill="#8D6E63"/>
  <!-- Hair - short dark -->
  <path d="M 24 50 Q 24 18 60 14 Q 96 18 96 50 Q 93 35 60 30 Q 27 35 24 50" fill="#3E2723"/>
  <!-- Short hair sides -->
  <path d="M 24 50 Q 22 56 24 60" stroke="#3E2723" stroke-width="5" fill="none"/>
  <path d="M 96 50 Q 98 56 96 60" stroke="#3E2723" stroke-width="5" fill="none"/>
  <!-- Eyebrows - thick -->
  <path d="M 40 46 L 54 44" stroke="#2C1B0E" stroke-width="2.5" fill="none" stroke-linecap="round"/>
  <path d="M 66 44 L 80 46" stroke="#2C1B0E" stroke-width="2.5" fill="none" stroke-linecap="round"/>
  <!-- Eyes -->
  <ellipse cx="47" cy="53" rx="5" ry="5" fill="white"/>
  <circle cx="48" cy="53" r="3.2" fill="#4E342E"/>
  <circle cx="49" cy="52" r="1.1" fill="white"/>
  <ellipse cx="73" cy="53" rx="5" ry="5" fill="white"/>
  <circle cx="74" cy="53" r="3.2" fill="#4E342E"/>
  <circle cx="75" cy="52" r="1.1" fill="white"/>
  <!-- Nose -->
  <ellipse cx="60" cy="62" rx="5" ry="3.5" fill="#795548"/>
  <!-- Beard/stubble -->
  <path d="M 42 70 Q 45 80 60 82 Q 75 80 78 70" fill="#3E2723" opacity="0.3"/>
  <!-- Mouth - smile -->
  <path d="M 50 72 Q 60 79 70 72" stroke="#D7CCC8" stroke-width="2.5" fill="none" stroke-linecap="round"/>
  <!-- Teeth -->
  <path d="M 53 73 Q 60 77 67 73" fill="white"/>
  <!-- Ears -->
  <ellipse cx="22" cy="58" rx="5" ry="7" fill="#8D6E63"/>
  <ellipse cx="98" cy="58" rx="5" ry="7" fill="#8D6E63"/>
  <!-- Neck -->
  <rect x="48" y="92" width="24" height="12" rx="2" fill="#8D6E63"/>
  <!-- Shirt -->
  <path d="M 28 104 Q 40 96 48 98 L 72 98 Q 80 96 92 104 L 92 120 L 28 120 Z" fill="#66BB6A"/>
  <path d="M 48 98 L 60 106 L 72 98" fill="#43A047"/>
</svg>