<svg viewBox="0 0 120 120" xmlns="http://www.w3.org/2000/svg">
  <!-- Background -->
  <circle cx="60" cy="60" r="58" fill="#F8BBD0"/>
  <!-- Face -->
  <circle cx="60" cy="58" r="38" fill="#FFE0C8"/>
  <!-- Hair - brown ponytail -->
  <path d="M 24 52 Q 24 16 60 12 Q 96 16 96 52 Q 93 30 60 24 Q 27 30 24 52" fill="#6D4C41"/>
  <!-- Ponytail -->
  <path d="M 82 35 Q 100 30 105 50 Q 108 65 100 78 Q 95 72 96 58 Q 96 42 82 35" fill="#6D4C41"/>
  <path d="M 84 38 Q 98 35 102 52" stroke="#5D4037" stroke-width="1.5" fill="none"/>
  <!-- Hair band -->
  <circle cx="85" cy="36" r="3" fill="#E91E63"/>
  <!-- Side bangs -->
  <path d="M 28 48 Q 30 38 40 30" stroke="#6D4C41" stroke-width="6" fill="none" stroke-linecap="round"/>
  <!-- Eyebrows -->
  <path d="M 42 46 Q 48 43 53 46" stroke="#5D4037" stroke-width="1.5" fill="none" stroke-linecap="round"/>
  <path d="M 67 46 Q 72 43 78 46" stroke="#5D4037" stroke-width="1.5" fill="none" stroke-linecap="round"/>
  <!-- Eyes - big cute -->
  <ellipse cx="47" cy="54" rx="6" ry="6.5" fill="white"/>
  <circle cx="49" cy="54" r="4" fill="#795548"/>
  <circle cx="50" cy="53" r="1.5" fill="white"/>
  <ellipse cx="73" cy="54" rx="6" ry="6.5" fill="white"/>
  <circle cx="75" cy="54" r="4" fill="#795548"/>
  <circle cx="76" cy="53" r="1.5" fill="white"/>
  <!-- Eyelashes -->
  <path d="M 41 50 L 39 47" stroke="#5D4037" stroke-width="1.2" stroke-linecap="round"/>
  <path d="M 43 49 L 42 46" stroke="#5D4037" stroke-width="1.2" stroke-linecap="round"/>
  <path d="M 79 50 L 81 47" stroke="#5D4037" stroke-width="1.2" stroke-linecap="round"/>
  <path d="M 77 49 L 78 46" stroke="#5D4037" stroke-width="1.2" stroke-linecap="round"/>
  <!-- Nose -->
  <path d="M 60 58 Q 58 63 60 64 Q 62 63 60 58" fill="#F0C0A0"/>
  <!-- Mouth - happy -->
  <path d="M 53 69 Q 60 75 67 69" stroke="#E57373" stroke-width="2" fill="#F48FB1"/>
  <!-- Blush -->
  <circle cx="38" cy="64" r="5" fill="#F8BBD0" opacity="0.6"/>
  <circle cx="82" cy="64" r="5" fill="#F8BBD0" opacity="0.6"/>
  <!-- Neck -->
  <rect x="50" y="92" width="20" height="12" rx="2" fill="#FFE0C8"/>
  <!-- Shirt -->
  <path d="M 30 104 Q 40 96 50 98 L 70 98 Q 80 96 90 104 L 90 120 L 30 120 Z" fill="#E91E63"/>
  <path d="M 50 98 L 60 105 L 70 98" fill="#C2185B"/>
</svg>