<svg viewBox="0 0 120 120" xmlns="http://www.w3.org/2000/svg">
  <!-- Background circle -->
  <circle cx="60" cy="60" r="58" fill="#FFB5BA"/>

  <!-- Head -->
  <circle cx="60" cy="45" r="21" fill="#E8B5A0"/>

  <!-- Hair -->
  <path d="M 39 38 Q 39 20 60 18 Q 81 20 81 38 L 81 45 Q 81 55 60 58 Q 39 55 39 45 Z" fill="#8B6F47"/>

  <!-- Eyes -->
  <circle cx="53" cy="43" r="3" fill="#333333"/>
  <circle cx="67" cy="43" r="3" fill="#333333"/>
  <circle cx="54" cy="41" r="1.5" fill="white"/>
  <circle cx="68" cy="41" r="1.5" fill="white"/>

  <!-- Big happy smile -->
  <path d="M 54 50 Q 60 56 66 50" stroke="#D67C6C" stroke-width="2" fill="none" stroke-linecap="round"/>

  <!-- Rosy cheeks -->
  <circle cx="42" cy="48" r="4" fill="#FFB5BA" opacity="0.7"/>
  <circle cx="78" cy="48" r="4" fill="#FFB5BA" opacity="0.7"/>

  <!-- Neck -->
  <rect x="54" y="65" width="12" height="8" fill="#E8B5A0"/>

  <!-- T-shirt -->
  <path d="M 38 73 L 82 73 L 80 95 L 40 95 Z" fill="#87CEEB"/>

  <!-- T-shirt collar -->
  <path d="M 54 73 L 60 77 L 66 73" fill="#5BA3D0"/>

  <!-- T-shirt stripe -->
  <rect x="58" y="78" width="4" height="12" fill="#5BA3D0"/>
</svg>