<svg viewBox="0 0 120 120" xmlns="http://www.w3.org/2000/svg">
  <!-- Background -->
  <circle cx="60" cy="60" r="58" fill="#C5CAE9"/>
  <!-- Face -->
  <circle cx="60" cy="58" r="38" fill="#FFDAB9"/>
  <!-- Hair - dark with side part -->
  <path d="M 24 52 Q 24 16 60 12 Q 96 16 96 52 Q 93 32 60 26 Q 27 32 24 52" fill="#3E2723"/>
  <path d="M 24 52 Q 22 60 25 68" stroke="#3E2723" stroke-width="5" fill="none"/>
  <path d="M 96 52 Q 98 60 95 68" stroke="#3E2723" stroke-width="5" fill="none"/>
  <!-- Glasses - round -->
  <circle cx="45" cy="54" r="10" fill="none" stroke="#37474F" stroke-width="2.5"/>
  <circle cx="75" cy="54" r="10" fill="none" stroke="#37474F" stroke-width="2.5"/>
  <line x1="55" y1="54" x2="65" y2="54" stroke="#37474F" stroke-width="2"/>
  <line x1="35" y1="52" x2="25" y2="50" stroke="#37474F" stroke-width="2"/>
  <line x1="85" y1="52" x2="95" y2="50" stroke="#37474F" stroke-width="2"/>
  <!-- Eyes behind glasses -->
  <circle cx="45" cy="54" r="3" fill="#4E342E"/>
  <circle cx="46" cy="53" r="1" fill="white"/>
  <circle cx="75" cy="54" r="3" fill="#4E342E"/>
  <circle cx="76" cy="53" r="1" fill="white"/>
  <!-- Eyebrows -->
  <path d="M 38 43 L 52 41" stroke="#3E2723" stroke-width="2" fill="none" stroke-linecap="round"/>
  <path d="M 68 41 L 82 43" stroke="#3E2723" stroke-width="2" fill="none" stroke-linecap="round"/>
  <!-- Nose -->
  <path d="M 60 58 L 58 65 Q 60 67 62 65 Z" fill="#E8C0A0"/>
  <!-- Beard -->
  <path d="M 38 70 Q 38 78 45 84 Q 55 90 60 90 Q 65 90 75 84 Q 82 78 82 70" fill="#5D4037"/>
  <!-- Mouth in beard -->
  <path d="M 52 76 Q 60 80 68 76" stroke="#FFAB91" stroke-width="2" fill="none" stroke-linecap="round"/>
  <!-- Ears -->
  <ellipse cx="22" cy="56" rx="5" ry="7" fill="#FFDAB9"/>
  <ellipse cx="98" cy="56" rx="5" ry="7" fill="#FFDAB9"/>
  <!-- Neck -->
  <rect x="48" y="92" width="24" height="12" rx="2" fill="#FFDAB9"/>
  <!-- Shirt -->
  <path d="M 28 104 Q 40 96 48 98 L 72 98 Q 80 96 92 104 L 92 120 L 28 120 Z" fill="#5C6BC0"/>
  <path d="M 48 98 L 60 106 L 72 98" fill="#3F51B5"/>
</svg>