<svg viewBox="0 0 120 120" xmlns="http://www.w3.org/2000/svg">
  <!-- Background -->
  <circle cx="60" cy="60" r="58" fill="#FFCCBC"/>
  <!-- Face -->
  <circle cx="60" cy="58" r="38" fill="#FFE4CC"/>
  <!-- Hair - red curly -->
  <circle cx="30" cy="38" r="12" fill="#E65100"/>
  <circle cx="45" cy="25" r="13" fill="#E65100"/>
  <circle cx="60" cy="20" r="14" fill="#E65100"/>
  <circle cx="75" cy="25" r="13" fill="#E65100"/>
  <circle cx="90" cy="38" r="12" fill="#E65100"/>
  <circle cx="25" cy="55" r="10" fill="#E65100"/>
  <circle cx="95" cy="55" r="10" fill="#E65100"/>
  <circle cx="28" cy="68" r="8" fill="#E65100"/>
  <circle cx="92" cy="68" r="8" fill="#E65100"/>
  <!-- Hair highlights -->
  <circle cx="40" cy="22" r="5" fill="#FF8F00" opacity="0.5"/>
  <circle cx="70" cy="18" r="5" fill="#FF8F00" opacity="0.5"/>
  <!-- Eyebrows -->
  <path d="M 42 46 Q 48 42 54 45" stroke="#BF360C" stroke-width="1.8" fill="none" stroke-linecap="round"/>
  <path d="M 66 45 Q 72 42 78 46" stroke="#BF360C" stroke-width="1.8" fill="none" stroke-linecap="round"/>
  <!-- Eyes - green -->
  <ellipse cx="48" cy="54" rx="5.5" ry="6" fill="white"/>
  <circle cx="49" cy="54" r="3.5" fill="#2E7D32"/>
  <circle cx="50" cy="53" r="1.3" fill="white"/>
  <ellipse cx="72" cy="54" rx="5.5" ry="6" fill="white"/>
  <circle cx="73" cy="54" r="3.5" fill="#2E7D32"/>
  <circle cx="74" cy="53" r="1.3" fill="white"/>
  <!-- Freckles -->
  <circle cx="40" cy="62" r="1" fill="#BCAAA4"/>
  <circle cx="44" cy="64" r="1" fill="#BCAAA4"/>
  <circle cx="42" cy="66" r="1" fill="#BCAAA4"/>
  <circle cx="76" cy="62" r="1" fill="#BCAAA4"/>
  <circle cx="80" cy="64" r="1" fill="#BCAAA4"/>
  <circle cx="78" cy="66" r="1" fill="#BCAAA4"/>
  <!-- Nose -->
  <path d="M 60 58 Q 57 64 60 65 Q 63 64 60 58" fill="#F0C0A0"/>
  <!-- Mouth -->
  <path d="M 52 70 Q 60 76 68 70" stroke="#E57373" stroke-width="2" fill="#EF9A9A"/>
  <!-- Blush -->
  <circle cx="38" cy="65" r="5" fill="#FFCDD2" opacity="0.5"/>
  <circle cx="82" cy="65" r="5" fill="#FFCDD2" opacity="0.5"/>
  <!-- Neck -->
  <rect x="50" y="92" width="20" height="12" rx="2" fill="#FFE4CC"/>
  <!-- Shirt -->
  <path d="M 30 104 Q 40 96 50 98 L 70 98 Q 80 96 90 104 L 90 120 L 30 120 Z" fill="#FF7043"/>
  <path d="M 50 98 L 60 105 L 70 98" fill="#E64A19"/>
</svg>