<svg viewBox="0 0 120 120" xmlns="http://www.w3.org/2000/svg">
  <!-- Background -->
  <circle cx="60" cy="60" r="58" fill="#D7CCC8"/>
  <!-- Face -->
  <circle cx="60" cy="58" r="38" fill="#FFDAB9"/>
  <!-- Hair - grey -->
  <path d="M 26 52 Q 26 18 60 14 Q 94 18 94 52 Q 91 34 60 28 Q 29 34 26 52" fill="#9E9E9E"/>
  <path d="M 26 52 Q 24 60 26 66" stroke="#9E9E9E" stroke-width="5" fill="none"/>
  <path d="M 94 52 Q 96 60 94 66" stroke="#9E9E9E" stroke-width="5" fill="none"/>
  <!-- Hair comb lines -->
  <path d="M 40 20 Q 50 16 60 15" stroke="#BDBDBD" stroke-width="1" fill="none"/>
  <path d="M 50 18 Q 60 14 70 15" stroke="#BDBDBD" stroke-width="1" fill="none"/>
  <!-- Eyebrows - bushy grey -->
  <path d="M 38 44 Q 45 40 54 44" stroke="#757575" stroke-width="2.5" fill="none" stroke-linecap="round"/>
  <path d="M 66 44 Q 75 40 82 44" stroke="#757575" stroke-width="2.5" fill="none" stroke-linecap="round"/>
  <!-- Eyes - kind -->
  <ellipse cx="46" cy="53" rx="4.5" ry="4.5" fill="white"/>
  <circle cx="47" cy="53" r="3" fill="#5D4037"/>
  <circle cx="48" cy="52" r="1" fill="white"/>
  <ellipse cx="74" cy="53" rx="4.5" ry="4.5" fill="white"/>
  <circle cx="75" cy="53" r="3" fill="#5D4037"/>
  <circle cx="76" cy="52" r="1" fill="white"/>
  <!-- Crow's feet wrinkles -->
  <path d="M 36 52 L 33 50" stroke="#D7CCC8" stroke-width="0.8" stroke-linecap="round"/>
  <path d="M 36 54 L 33 55" stroke="#D7CCC8" stroke-width="0.8" stroke-linecap="round"/>
  <path d="M 84 52 L 87 50" stroke="#D7CCC8" stroke-width="0.8" stroke-linecap="round"/>
  <path d="M 84 54 L 87 55" stroke="#D7CCC8" stroke-width="0.8" stroke-linecap="round"/>
  <!-- Nose -->
  <path d="M 60 56 L 57 64 Q 60 67 63 64 Z" fill="#E8C0A0"/>
  <!-- Mustache -->
  <path d="M 46 70 Q 52 67 60 70 Q 68 67 74 70" fill="#9E9E9E"/>
  <!-- Mouth -->
  <path d="M 52 74 Q 60 78 68 74" stroke="#CD8C7A" stroke-width="1.8" fill="none" stroke-linecap="round"/>
  <!-- Ears -->
  <ellipse cx="22" cy="56" rx="6" ry="8" fill="#FFDAB9"/>
  <ellipse cx="98" cy="56" rx="6" ry="8" fill="#FFDAB9"/>
  <!-- Neck -->
  <rect x="48" y="92" width="24" height="12" rx="2" fill="#FFDAB9"/>
  <!-- Shirt with collar -->
  <path d="M 28 104 Q 40 96 48 98 L 72 98 Q 80 96 92 104 L 92 120 L 28 120 Z" fill="#795548"/>
  <path d="M 48 98 L 60 108 L 72 98" fill="#5D4037"/>
  <!-- Collar points -->
  <path d="M 46 100 L 52 98 L 55 105" fill="white"/>
  <path d="M 74 100 L 68 98 L 65 105" fill="white"/>
</svg>