<svg viewBox="0 0 120 120" xmlns="http://www.w3.org/2000/svg">
  <!-- Background -->
  <circle cx="60" cy="60" r="58" fill="#FFF9C4"/>
  <!-- Face -->
  <circle cx="60" cy="60" r="38" fill="#FFDAB9"/>
  <!-- Cap -->
  <path d="M 24 48 Q 24 25 60 22 Q 96 25 96 48 L 24 48" fill="#F44336"/>
  <!-- Cap brim -->
  <path d="M 20 48 Q 60 52 100 48 Q 100 54 60 56 Q 20 54 20 48" fill="#D32F2F"/>
  <!-- Cap button -->
  <circle cx="60" cy="22" r="3" fill="#B71C1C"/>
  <!-- Hair poking out -->
  <path d="M 26 48 Q 24 56 26 62" stroke="#6D4C41" stroke-width="4" fill="none" stroke-linecap="round"/>
  <path d="M 94 48 Q 96 56 94 62" stroke="#6D4C41" stroke-width="4" fill="none" stroke-linecap="round"/>
  <!-- Eyebrows -->
  <path d="M 42 52 Q 48 49 54 52" stroke="#5D4037" stroke-width="2" fill="none" stroke-linecap="round"/>
  <path d="M 66 52 Q 72 49 78 52" stroke="#5D4037" stroke-width="2" fill="none" stroke-linecap="round"/>
  <!-- Eyes -->
  <ellipse cx="48" cy="59" rx="5" ry="5.5" fill="white"/>
  <circle cx="49" cy="59" r="3.2" fill="#3E2723"/>
  <circle cx="50" cy="58" r="1.1" fill="white"/>
  <ellipse cx="72" cy="59" rx="5" ry="5.5" fill="white"/>
  <circle cx="73" cy="59" r="3.2" fill="#3E2723"/>
  <circle cx="74" cy="58" r="1.1" fill="white"/>
  <!-- Nose -->
  <path d="M 60 62 Q 58 67 60 68 Q 62 67 60 62" fill="#E8C0A0"/>
  <!-- Mouth - grin -->
  <path d="M 50 74 Q 60 80 70 74" stroke="#CD8C7A" stroke-width="2" fill="none" stroke-linecap="round"/>
  <path d="M 52 74 Q 60 78 68 74" fill="white"/>
  <!-- Ears -->
  <ellipse cx="22" cy="60" rx="5" ry="7" fill="#FFDAB9"/>
  <ellipse cx="98" cy="60" rx="5" ry="7" fill="#FFDAB9"/>
  <!-- Neck -->
  <rect x="48" y="94" width="24" height="12" rx="2" fill="#FFDAB9"/>
  <!-- Hoodie -->
  <path d="M 26 106 Q 38 96 48 100 L 72 100 Q 82 96 94 106 L 94 120 L 26 120 Z" fill="#FFC107"/>
  <!-- Hoodie strings -->
  <line x1="52" y1="100" x2="50" y2="112" stroke="white" stroke-width="1.5"/>
  <line x1="68" y1="100" x2="70" y2="112" stroke="white" stroke-width="1.5"/>
  <circle cx="50" cy="113" r="1.5" fill="white"/>
  <circle cx="70" cy="113" r="1.5" fill="white"/>
</svg>