<svg viewBox="0 0 120 120" xmlns="http://www.w3.org/2000/svg">
  <!-- Background -->
  <circle cx="60" cy="60" r="58" fill="#E1BEE7"/>
  <!-- Face -->
  <circle cx="60" cy="58" r="38" fill="#C8A882"/>
  <!-- Hair - dark curly voluminous -->
  <circle cx="32" cy="32" r="14" fill="#1A1A1A"/>
  <circle cx="50" cy="22" r="15" fill="#1A1A1A"/>
  <circle cx="70" cy="22" r="15" fill="#1A1A1A"/>
  <circle cx="88" cy="32" r="14" fill="#1A1A1A"/>
  <circle cx="22" cy="48" r="12" fill="#1A1A1A"/>
  <circle cx="98" cy="48" r="12" fill="#1A1A1A"/>
  <circle cx="20" cy="64" r="10" fill="#1A1A1A"/>
  <circle cx="100" cy="64" r="10" fill="#1A1A1A"/>
  <circle cx="24" cy="78" r="8" fill="#1A1A1A"/>
  <circle cx="96" cy="78" r="8" fill="#1A1A1A"/>
  <circle cx="40" cy="16" r="10" fill="#1A1A1A"/>
  <circle cx="80" cy="16" r="10" fill="#1A1A1A"/>
  <circle cx="60" cy="14" r="11" fill="#1A1A1A"/>
  <!-- Hair highlights -->
  <circle cx="35" cy="28" r="4" fill="#424242" opacity="0.4"/>
  <circle cx="75" cy="20" r="4" fill="#424242" opacity="0.4"/>
  <!-- Eyebrows -->
  <path d="M 42 47 Q 48 43 54 46" stroke="#1A1A1A" stroke-width="1.8" fill="none" stroke-linecap="round"/>
  <path d="M 66 46 Q 72 43 78 47" stroke="#1A1A1A" stroke-width="1.8" fill="none" stroke-linecap="round"/>
  <!-- Eyes - warm brown -->
  <ellipse cx="48" cy="55" rx="5.5" ry="6" fill="white"/>
  <circle cx="49" cy="55" r="3.8" fill="#4E342E"/>
  <circle cx="50" cy="54" r="1.3" fill="white"/>
  <ellipse cx="72" cy="55" rx="5.5" ry="6" fill="white"/>
  <circle cx="73" cy="55" r="3.8" fill="#4E342E"/>
  <circle cx="74" cy="54" r="1.3" fill="white"/>
  <!-- Eyelashes -->
  <path d="M 42 52 L 40 49" stroke="#1A1A1A" stroke-width="1.2" stroke-linecap="round"/>
  <path d="M 78 52 L 80 49" stroke="#1A1A1A" stroke-width="1.2" stroke-linecap="round"/>
  <!-- Nose -->
  <ellipse cx="60" cy="63" rx="4" ry="3" fill="#B8956A"/>
  <!-- Mouth - warm smile -->
  <path d="M 50 71 Q 60 78 70 71" stroke="#CD8C7A" stroke-width="2.2" fill="none" stroke-linecap="round"/>
  <path d="M 53 72 Q 60 76 67 72" fill="white"/>
  <!-- Earrings -->
  <circle cx="22" cy="68" r="3" fill="#FFC107"/>
  <circle cx="98" cy="68" r="3" fill="#FFC107"/>
  <!-- Neck -->
  <rect x="48" y="92" width="24" height="12" rx="2" fill="#C8A882"/>
  <!-- Shirt -->
  <path d="M 28 104 Q 40 96 48 98 L 72 98 Q 80 96 92 104 L 92 120 L 28 120 Z" fill="#AB47BC"/>
  <path d="M 48 98 L 60 106 L 72 98" fill="#8E24AA"/>
</svg>